HIERARCHY
ROOT RootJoint
{
    OFFSET   0.000000   0.000000   0.000000
    CHANNELS 6 Xposition Yposition Zposition Xrotation Yrotation Zrotation
    JOINT pelvis_lowerback
    {
        OFFSET   0.000000   0.093605   0.000000
        CHANNELS 3 Xrotation Yrotation Zrotation
        JOINT lowerback_torso
        {
            OFFSET   0.000000   0.100000   0.000000
            CHANNELS 3 Xrotation Yrotation Zrotation
            JOINT torso_head
            {
                OFFSET   0.000000   0.282350   0.000000
                CHANNELS 3 Xrotation Yrotation Zrotation
                End Site
                {
                    OFFSET   0.000000   0.192650   0.000000
                }
            }
            JOINT rTorso_Clavicle
            {
                OFFSET  -0.001000   0.157500   0.000000
                CHANNELS 3 Xrotation Yrotation Zrotation
                JOINT rShoulder
                {
                    OFFSET  -0.117647   0.000000   0.000000
                    CHANNELS 3 Xrotation Yrotation Zrotation
                    JOINT rElbow
                    {
                        OFFSET  -0.245000   0.000000   0.000000
                        CHANNELS 3 Xrotation Yrotation Zrotation
                        JOINT rWrist
                        {
                            OFFSET  -0.240000   0.000000   0.000000
                            CHANNELS 3 Xrotation Yrotation Zrotation
                            End Site
                            {
                                OFFSET  -0.116353  -0.002500   0.000000
                            }
                        }
                    }
                }
            }
            JOINT lTorso_Clavicle
            {
                OFFSET   0.001000   0.157500   0.000000
                CHANNELS 3 Xrotation Yrotation Zrotation
                JOINT lShoulder
                {
                    OFFSET   0.117647   0.000000   0.000000
                    CHANNELS 3 Xrotation Yrotation Zrotation
                    JOINT lElbow
                    {
                        OFFSET   0.245000   0.000000   0.000000
                        CHANNELS 3 Xrotation Yrotation Zrotation
                        JOINT lWrist
                        {
                            OFFSET   0.240000   0.000000   0.000000
                            CHANNELS 3 Xrotation Yrotation Zrotation
                            End Site
                            {
                                OFFSET   0.116353  -0.002500   0.000000
                            }
                        }
                    }
                }
            }
        }
    }
    JOINT rHip
    {
        OFFSET  -0.100000  -0.051395   0.000000
        CHANNELS 3 Xrotation Yrotation Zrotation
        JOINT rKnee
        {
            OFFSET   0.000000  -0.410000   0.000000
            CHANNELS 3 Xrotation Yrotation Zrotation
            JOINT rAnkle
            {
                OFFSET   0.000000  -0.390000   0.000000
                CHANNELS 3 Xrotation Yrotation Zrotation
                JOINT rToeJoint
                {
                    OFFSET   0.000000  -0.050000   0.130000
                    CHANNELS 3 Xrotation Yrotation Zrotation
                    End Site
                    {
                        OFFSET  -0.010000   0.002000   0.060000
                    }
                }
            }
        }
    }
    JOINT lHip
    {
        OFFSET   0.100000  -0.051395   0.000000
        CHANNELS 3 Xrotation Yrotation Zrotation
        JOINT lKnee
        {
            OFFSET   0.000000  -0.410000   0.000000
            CHANNELS 3 Xrotation Yrotation Zrotation
            JOINT lAnkle
            {
                OFFSET   0.000000  -0.390000   0.000000
                CHANNELS 3 Xrotation Yrotation Zrotation
                JOINT lToeJoint
                {
                    OFFSET   0.000000  -0.050000   0.130000
                    CHANNELS 3 Xrotation Yrotation Zrotation
                    End Site
                    {
                        OFFSET   0.010000   0.002000   0.060000
                    }
                }
            }
        }
    }
}
MOTION
Frames: 14
Frame Time:   0.008333
 -2.219812   0.896966   3.896938   0.753557   3.108758  -7.179551   2.537327  -2.910774  -2.422606   5.705709  -5.256628   4.493247   5.037963  -7.564117   5.895058  -0.170931  -8.206410   9.062315 -15.504965 -15.172888  37.374316  -0.025333  60.070169   0.014453  -2.949727   3.602296  -6.777124   4.100459   4.477372  -4.130803  -3.026534 -19.974228 -43.063420 179.917883 -87.244618 179.918961   0.842189  -6.200213   0.834344  -9.536543 -12.531718 -13.044431  18.181805   0.001341   0.001585   1.382090 -10.942179   5.226421  -1.897071   0.000440  -0.000121 -13.661845   5.175279  10.177451  34.171599  -0.000020   0.003634 -22.448964   8.727931   4.629690   0.622819  -0.000020   0.000005
 -2.219672   0.897491   3.895952   0.811714   2.931952  -7.027283   2.580589  -2.936879  -2.444162   5.637859  -5.206185   4.453806   4.956124  -7.502423   5.864616  -0.212817  -8.054784   9.129201 -15.325346 -14.887223  37.585986  -0.031207  58.637959   0.019941  -2.960822   3.794570  -6.935108   4.047316   4.410871  -4.299953  -2.916037 -19.764849 -43.092594 179.916412 -88.106950 179.918330   0.806535  -6.342462   1.165988  -9.395765 -12.338364 -13.093189  19.113531   0.001039   0.001753   0.668714 -11.105474   5.082855  -1.804084   0.000537  -0.000205 -13.611580   5.246319   9.961944  33.856733  -0.000019   0.003387 -22.222310   8.924005   4.759772   0.595905   0.000001  -0.000004
 -2.219604   0.897901   3.895011   0.853062   2.764463  -6.862004   2.620084  -2.967012  -2.468477   5.583198  -5.160683   4.407188   4.870029  -7.445525   5.831384  -0.246930  -7.894944   9.217085 -15.147429 -14.620508  37.795824  -0.035063  57.265749   0.023390  -2.991618   3.776744  -7.031685   4.021341   4.328901  -4.496240  -2.792004 -19.570426 -43.134057 179.916911 -88.948189 179.919799   0.769442  -6.307386   1.422213  -9.231235 -12.166547 -13.125748  20.055918   0.000545   0.001871   0.005277 -11.257308   4.946668  -1.719878   0.000581  -0.000262 -13.561375   5.319289   9.742999  33.584822  -0.000015   0.003094 -22.017841   9.112880   4.882894   0.565673   0.000019  -0.000012
 -2.219609   0.898204   3.894081   0.892300   2.592398  -6.683421   2.652436  -2.992999  -2.498129   5.533359  -5.117200   4.357636   4.786546  -7.392659   5.799277  -0.275411  -7.742601   9.316825 -14.975511 -14.372855  38.003027  -0.036926  55.979867   0.024958  -3.028147   3.700859  -7.093980   4.010864   4.248657  -4.700599  -2.665753 -19.390748 -43.184154 179.908838 -89.740381 179.912510   0.731614  -6.213621   1.624864  -9.054791 -12.011750 -13.141393  20.954055  -0.000089   0.001884  -0.613362 -11.397359   4.817962  -1.639336   0.000584  -0.000302 -13.518889   5.391345   9.519869  33.341172   0.000008   0.002823 -21.838666   9.288760   4.996323   0.549966   0.000024  -0.000012
 -2.219683   0.898413   3.893140   0.932391   2.411232  -6.491701   2.680763  -3.014209  -2.532007   5.486832  -5.074421   4.306862   4.707071  -7.343353   5.768593  -0.300585  -7.598632   9.421319 -14.812292 -14.141918  38.203788  -0.037289  54.778437   0.025206  -3.065116   3.613235  -7.137112   4.008605   4.172935  -4.903249  -2.542262 -19.224026 -43.237761  -0.065899 -89.518086  -0.061732   0.694067  -6.105687   1.796179  -8.874638 -11.871518 -13.142577  21.799210  -0.000798   0.001800  -1.190913 -11.526511   4.696438  -1.564107   0.000555  -0.000330 -13.485730   5.463515   9.292099  33.120205   0.000043   0.002584 -21.681347   9.453936   5.099739   0.549905   0.000019  -0.000010
 -2.219824   0.898539   3.892175   0.974209   2.226887  -6.288258   2.707737  -3.033882  -2.567702   5.444162  -5.034170   4.256601   4.632158  -7.297405   5.739495  -0.323488  -7.463306   9.525935 -14.658846 -13.926276  38.395479  -0.036609  53.656806   0.024597  -3.101049   3.526209  -7.169441   4.010273   4.101216  -5.099339  -2.424171 -19.069469 -43.292012  -0.067010 -88.825196  -0.062632   0.657301  -5.996939   1.947297  -8.692829 -11.745171 -13.130764  22.591569  -0.001516   0.001690  -1.730261 -11.645709   4.581787  -1.494407   0.000504  -0.000343 -13.464210   5.542203   9.060370  32.918797   0.000073   0.002355 -21.541327   9.616212   5.193226   0.563883   0.000009  -0.000008
 -2.220033   0.898594   3.891179   1.017996   2.040131  -6.074505   2.734536  -3.052329  -2.603274   5.405584  -4.996640   4.207898   4.562007  -7.254533   5.712046  -0.344745  -7.336384   9.627687 -14.515486 -13.724682  38.576713  -0.035230  52.610049   0.023451  -3.135486   3.443435  -7.195371   4.013663   4.033256  -5.286466  -2.312568 -18.926214 -43.345346  -0.064537 -88.178305  -0.060187   0.621543  -5.891903   2.084208  -8.512684 -11.630869 -13.107154  23.333500  -0.002206   0.001575  -2.233954 -11.755739   4.473715  -1.429999   0.000439  -0.000345 -13.452147   5.624450   8.825529  32.731804   0.000102   0.002145 -21.417838   9.772595   5.278917   0.595336  -0.000007  -0.000007
 -2.220315   0.898702   3.890077   1.016301   1.816161  -5.835778   2.849574  -3.071460  -2.650141   5.306849  -4.933260   4.136231   4.447345  -7.180659   5.642169  -0.362755  -7.141251   9.714531 -14.238487 -13.334318  38.744697  -0.040151  51.102401   0.029435  -3.113196   3.583854  -7.262658   3.982987   3.863211  -5.477284  -2.084649 -18.833796 -43.373646  -0.094165 -87.161555  -0.089231   0.631020  -6.031670   2.327482  -8.417093 -11.523091 -13.108500  24.355453  -0.003553   0.001036  -2.879581 -11.912295   4.358087  -1.268208   0.000407  -0.000616 -13.381905   5.701920   8.561730  32.524157   0.000158   0.002101 -21.262231   9.986102   5.397716   0.595305  -0.000006  -0.000005
 -2.220687   0.898397   3.889034   1.022602   1.564954  -5.659448   2.938829  -3.087297  -2.634328   5.210361  -4.870599   4.076960   4.328804  -7.110674   5.570617  -0.373643  -6.943771   9.780003 -13.973821 -12.964949  38.896777  -0.042036  49.671578   0.032372  -3.104182   3.560035  -7.242200   3.972110   3.688515  -5.667706  -1.855001 -18.751082 -43.409596  -0.104869 -86.183844  -0.099669   0.634403  -6.006316   2.492417  -8.326431 -11.435171 -13.044172  25.366682  -0.004774   0.000364  -3.482154 -12.057652   4.248775  -1.132256   0.000356  -0.000806 -13.250866   5.768488   8.366967  32.247039   0.000291   0.002248 -20.857387  10.187615   5.537884  -1.631979   0.003217   0.001307
 -2.221182   0.898366   3.887891   1.022387   1.347302  -5.398415   3.049619  -3.120940  -2.709842   5.128199  -4.825093   4.002571   4.213119  -7.046399   5.507249  -0.381171  -6.754869   9.900135 -13.718452 -12.624989  39.063572  -0.042739  48.327633   0.033657  -3.101361   3.485892  -7.202150   3.964863   3.510553  -5.872623  -1.635462 -18.671486 -43.442792  -0.106464 -85.252471  -0.100809   0.634876  -5.892099   2.624685  -8.227412 -11.352508 -13.040523  26.309653  -0.005775   0.000136  -4.043249 -12.193366   4.144655  -0.996324   0.000283  -0.000911 -13.212485   5.846155   8.100905  32.113205   0.000294   0.002029 -20.822717  10.392752   5.635348  -1.136333   0.002303   0.001055
 -2.221790   0.898410   3.886720   1.022786   1.126963  -5.140999   3.157485  -3.150864  -2.771314   5.060554  -4.784043   3.924322   4.105535  -6.986338   5.443189  -0.384326  -6.578730  10.019380 -13.475595 -12.308825  39.227212  -0.042095  47.072182   0.033572  -3.101165   3.396612  -7.138057   3.964801   3.340901  -6.075511  -1.426746 -18.602111 -43.485176  -0.103902 -84.383507  -0.098008   0.633242  -5.764155   2.726392  -8.122744 -11.278972 -13.010071  27.192907  -0.006645   0.000018  -4.567550 -12.318629   4.046141  -0.872699   0.000190  -0.000957 -13.172483   5.931774   7.848932  31.959097   0.000314   0.001874 -20.733923  10.588919   5.729763  -0.769448   0.001603   0.000844
 -2.222496   0.898471   3.885517   1.026532   0.898240  -4.886709   3.261799  -3.177889  -2.823652   5.002169  -4.745439   3.849675   4.005591  -6.930023   5.382490  -0.386265  -6.414756  10.131331 -13.248776 -12.013616  39.380634  -0.040413  45.900658   0.032447  -3.101154   3.308064  -7.066262   3.968390   3.181700  -6.270328  -1.229497 -18.539756 -43.530180  -0.099197 -83.573638  -0.093352   0.631070  -5.642910   2.807314  -8.021852 -11.213823 -12.961782  28.020205  -0.007363  -0.000083  -5.057385 -12.434329   3.953164  -0.760448   0.000091  -0.000968 -13.135072   6.012419   7.609376  31.796420   0.000352   0.001773 -20.618931  10.771767   5.819903  -0.486558   0.001076   0.000617
 -2.223292   0.898519   3.884282   1.032514   0.653439  -4.633577   3.362767  -3.200614  -2.869352   4.951089  -4.707485   3.779247   3.912913  -6.877181   5.325736  -0.388558  -6.261592  10.233886 -13.038670 -11.737158  39.522270  -0.038032  44.808085   0.030595  -3.100561   3.226274  -6.994929   3.973649   3.033718  -6.454092  -1.043892 -18.482346 -43.574580  -0.093480 -82.818698  -0.087940   0.628796  -5.530756   2.876363  -7.928430 -11.154728 -12.903500  28.793305  -0.007926  -0.000228  -5.514998 -12.541297   3.865485  -0.658282  -0.000006  -0.000963 -13.099105   6.084105   7.380410  31.631767   0.000408   0.001720 -20.493464  10.937977   5.905210  -0.260707   0.000682   0.000373
 -2.224211   0.898675   3.882975   1.019499   0.373088  -4.369259   3.513080  -3.218260  -2.916350   4.839276  -4.664893   3.688072   3.774953  -6.804497   5.214872  -0.367025  -6.031106  10.322470 -12.622083 -11.247943  39.661071  -0.041087  43.380424   0.036131  -3.041488   3.320554  -6.971738   3.943665   2.791123  -6.634569  -0.721507 -18.469894 -43.538876  -0.106269 -81.646457  -0.101119   0.701096  -5.682045   3.011703  -7.893383 -11.158587 -12.868103  29.648140  -0.009002  -0.001076  -5.887023 -12.669140   3.813368  -0.508611  -0.000185  -0.001221 -13.039501   6.183954   7.147002  31.445010   0.000478   0.001735 -20.292544  11.176975   5.967627  -0.159032   0.000473   0.000294
